<mxfile host="app.diagrams.net" modified="2023-06-02T09:57:20.019Z" agent="Mozilla/5.0 (Windows NT 10.0; Win64; x64) AppleWebKit/537.36 (KHTML, like Gecko) Chrome/113.0.0.0 Safari/537.36 Edg/113.0.1774.57" version="21.3.7" etag="eVNBNjxVW_toCYO3fuLO" type="github">
  <diagram name="Страница 1" id="8Gp8lsZDL8f7LI7-zid3">
    <mxGraphModel>
      <root>
        <mxCell id="0" />
        <mxCell id="1" parent="0" />
      </root>
    </mxGraphModel>
  </diagram>
</mxfile>
